<svg width="35" height="35" viewBox="0 0 35 35" fill="none" xmlns="http://www.w3.org/2000/svg">
<path d="M17.7279 17.2721V23.9714C17.7279 24.2252 17.6271 24.4686 17.4476 24.6481C17.2681 24.8276 17.0247 24.9284 16.7709 24.9284C16.517 24.9284 16.2736 24.8276 16.0941 24.6481C15.9147 24.4686 15.8138 24.2252 15.8138 23.9714V17.2721C15.8138 17.0183 15.9147 16.7749 16.0941 16.5954C16.2736 16.4159 16.517 16.3151 16.7709 16.3151C17.0247 16.3151 17.2681 16.4159 17.4476 16.5954C17.6271 16.7749 17.7279 17.0183 17.7279 17.2721ZM30.1526 14.6535L28.4945 27.0961C28.433 27.5559 28.2066 27.9778 27.8574 28.2832C27.5082 28.5886 27.0599 28.7568 26.596 28.7565H6.94573C6.4818 28.7568 6.03353 28.5886 5.68431 28.2832C5.33509 27.9778 5.1087 27.5559 5.04722 27.0961L3.38797 14.6547C3.35181 14.3842 3.37391 14.1091 3.45278 13.8478C3.53165 13.5866 3.66547 13.3452 3.84527 13.14C4.02506 12.9347 4.24668 12.7702 4.49525 12.6576C4.74381 12.545 5.01359 12.4868 5.28648 12.487H9.63739L16.0531 5.15733C16.1429 5.05549 16.2533 4.97393 16.3771 4.91807C16.5009 4.8622 16.6351 4.83331 16.7709 4.83331C16.9066 4.83331 17.0409 4.8622 17.1646 4.91807C17.2884 4.97393 17.3988 5.05549 17.4886 5.15733L23.9043 12.487H28.2552C28.5278 12.4872 28.7972 12.5456 29.0454 12.6583C29.2936 12.7709 29.5148 12.9354 29.6943 13.1405C29.8739 13.3456 30.0075 13.5867 30.0863 13.8476C30.1651 14.1085 30.1873 14.3833 30.1514 14.6535H30.1526ZM12.1807 12.487H21.361L16.7709 7.24126L12.1807 12.487ZM28.2552 14.4011H5.28648L6.94573 26.8425H26.596L28.2552 14.4011ZM22.135 17.1764L21.4651 23.8757C21.4519 24.0011 21.4635 24.1279 21.4995 24.2488C21.5354 24.3697 21.5949 24.4823 21.6745 24.5801C21.7541 24.6779 21.8522 24.7591 21.9633 24.8189C22.0744 24.8786 22.1961 24.9159 22.3216 24.9284C22.3539 24.9302 22.3863 24.9302 22.4185 24.9284C22.6556 24.9281 22.8841 24.8398 23.0598 24.6807C23.2355 24.5216 23.3459 24.3029 23.3696 24.0671L24.0395 17.3679C24.0649 17.1153 23.9889 16.863 23.8283 16.6665C23.6676 16.47 23.4355 16.3453 23.183 16.3199C22.9304 16.2945 22.6781 16.3705 22.4816 16.5311C22.2851 16.6918 22.1604 16.9239 22.135 17.1764ZM11.4067 17.1764C11.3813 16.9239 11.2566 16.6918 11.0601 16.5311C10.8636 16.3705 10.6113 16.2945 10.3587 16.3199C10.1062 16.3453 9.87407 16.47 9.71344 16.6665C9.55281 16.863 9.47682 17.1153 9.5022 17.3679L10.1721 24.0671C10.1959 24.304 10.3072 24.5235 10.4841 24.6827C10.6611 24.842 10.8911 24.9296 11.1292 24.9284C11.1614 24.9302 11.1938 24.9302 11.2261 24.9284C11.3511 24.9158 11.4725 24.8788 11.5832 24.8193C11.6939 24.7598 11.7918 24.6791 11.8714 24.5818C11.9509 24.4845 12.0105 24.3725 12.0467 24.2521C12.083 24.1318 12.0952 24.0055 12.0826 23.8804L11.4067 17.1764Z" fill="white"/>
</svg>
