<svg width="35" height="35" viewBox="0 0 35 35" fill="none" xmlns="http://www.w3.org/2000/svg">
<path d="M4.91935 17.2893L16.1073 5.4496L16.8572 4.65559C17.028 4.47587 17.2591 4.375 17.4999 4.375C17.7408 4.375 17.9719 4.47587 18.1427 4.65559L30.0805 17.2893C30.2556 17.4739 30.394 17.6939 30.4875 17.9361C30.581 18.1783 30.6277 18.4378 30.6249 18.6995C30.6133 19.7786 29.7649 20.6401 28.7458 20.6401H27.5152V29.625C27.5152 30.1773 27.0675 30.625 26.5152 30.625H8.48469C7.93241 30.625 7.48469 30.1773 7.48469 29.625V20.6401H6.22808C5.73297 20.6401 5.2668 20.4347 4.91646 20.0637C4.74395 19.8817 4.60727 19.6652 4.51432 19.4268C4.42138 19.1884 4.37403 18.9329 4.37501 18.675C4.37501 18.1538 4.56901 17.6602 4.91935 17.2893ZM15.7948 28.6686H19.1214V22.1637H15.8785L15.7948 28.6686ZM9.56939 18.4328V28.6686H14.0254V21.4279C14.0254 20.7504 14.5437 20.2017 15.1836 20.2017H19.8163C20.4562 20.2017 20.9744 20.7504 20.9744 21.4279V28.6686H25.4305V18.4328H28.2101L17.4971 7.09894L16.8282 7.80711L6.7869 18.4328H9.56939Z" fill="#F66722"/>
</svg>
