<svg width="35" height="35" viewBox="0 0 35 35" fill="none" xmlns="http://www.w3.org/2000/svg">
<path d="M25.8594 25.7639L29.3122 29.1667M5.83301 8.75H27.931M5.83301 16.9167H11.3575M5.83301 25.0833H11.3575M15.5009 21C15.5009 22.444 16.0829 23.8288 17.119 24.8498C18.155 25.8708 19.5602 26.4444 21.0254 26.4444C22.4906 26.4444 23.8958 25.8708 24.9318 24.8498C25.9679 23.8288 26.5499 22.444 26.5499 21C26.5499 19.556 25.9679 18.1712 24.9318 17.1502C23.8958 16.1292 22.4906 15.5556 21.0254 15.5556C19.5602 15.5556 18.155 16.1292 17.119 17.1502C16.0829 18.1712 15.5009 19.556 15.5009 21Z" stroke="white" stroke-width="2.04167" stroke-linecap="round" stroke-linejoin="round"/>
</svg>
