<svg width="20" height="20" viewBox="0 0 20 20" fill="none" xmlns="http://www.w3.org/2000/svg">
<circle cx="10" cy="10" r="10" fill="#FFB764"/>
<path d="M10.1203 5C10.7292 5 11.2406 5.33261 11.2406 6.12455V10.6228C11.2406 11.4147 10.7292 11.7473 10.1203 11.7473C9.51145 11.7473 9 11.4147 9 10.6228V6.12455C9 5.33261 9.51145 5 10.1203 5Z" fill="white"/>
<path d="M10.1203 12.7509C10.7292 12.7509 11.2406 13.2588 11.2406 13.8634C11.2406 14.4921 10.7292 15 10.1203 15C9.51145 15 9 14.4921 9 13.8875V13.8634C9 13.2588 9.51145 12.7509 10.1203 12.7509Z" fill="white"/>
</svg>
